<svg fill="none" viewBox="0 0 28 28"><path d="M27.575 22.246a2.736 2.736 0 00-1.054-1.995l-3.628-2.834a2.725 2.725 0 00-3.383.011l-.81.64a1.612 1.612 0 01-2.137-.124l-6.49-6.506a1.62 1.62 0 01-.124-2.142l.64-.81a2.749 2.749 0 00.012-3.39L7.772 1.457A2.742 2.742 0 003.924.976c-.09.073-.181.147-.26.232L1.345 3.532c-.992.997-3.4 5.078 7.316 15.818 6.813 6.818 10.956 8.252 13.234 8.252 1.354 0 2.142-.5 2.562-.919l2.318-2.323a2.772 2.772 0 00.799-2.114zM26.1 23.413c-.04.051-.085.102-.13.142l-2.318 2.324c-.266.266-.788.589-1.757.589-1.689 0-5.549-1.026-12.429-7.923C1.533 10.593.563 5.918 2.15 4.325l2.318-2.324a1.608 1.608 0 012.41.154l2.827 3.638c.46.59.454 1.411-.006 1.995l-.64.805a2.747 2.747 0 00.215 3.644l6.49 6.506a2.74 2.74 0 003.638.216l.81-.64a1.6 1.6 0 011.984-.006l3.627 2.833c.703.55.828 1.564.278 2.267z"/><path d="M5.547 0c1.005-.01 1.908.44 2.54 1.213l2.828 3.638a3.147 3.147 0 01-.013 3.881l-.64.81a1.22 1.22 0 00.094 1.614l6.489 6.506a1.213 1.213 0 001.608.094l.808-.64a3.123 3.123 0 013.878-.013l3.625 2.832c.713.55 1.15 1.38 1.209 2.285v.003c.052.9-.28 1.776-.915 2.418l-2.319 2.324c-.636.637-1.577 1.035-2.843 1.035-1.408 0-3.104-.501-5.11-1.62-2.43-1.354-5.222-3.562-8.406-6.749C3.542 14.783.973 10.91.226 7.883-.069 6.688-.066 5.663.18 4.804c.189-.658.504-1.172.884-1.554L3.38.927c.089-.096.19-.178.29-.26h.002L3.68.66C4.263.212 4.824.048 5.547.001zm.128.798a2.418 2.418 0 00-1.504.49c-.076.06-.149.123-.216.192l-.005.005-.004.004-2.318 2.324c-.287.289-.532.687-.682 1.21C.74 5.745.738 6.628 1 7.692c.706 2.861 3.2 6.621 7.944 11.376 3.135 3.138 5.87 5.302 8.23 6.616 1.894 1.056 3.46 1.519 4.722 1.519 1.052 0 1.791-.313 2.28-.801l2.317-2.323c.48-.483.705-1.134.684-1.809-.042-.68-.38-1.279-.902-1.705l-3.627-2.834a2.327 2.327 0 00-2.891.01l-.81.64a2.01 2.01 0 01-2.666-.156L9.79 11.72a2.018 2.018 0 01-.155-2.672l.64-.81a2.35 2.35 0 00.01-2.898L7.458 1.702C7.1 1.254 6.583.917 6.01.832 5.9.815 5.786.809 5.675.798zm-.067.335c.05-.001.1 0 .149.008.57.038 1.078.33 1.435.769l2.828 3.638c.57.733.566 1.757-.009 2.488l-.639.803a2.349 2.349 0 00.185 3.117l6.49 6.506c.836.842 2.178.92 3.108.184l.81-.64a1.999 1.999 0 012.477-.008l3.627 2.834c.879.7 1.013 1.928.347 2.826-.111.132-.056.073-.163.178l-2.318 2.324c-.438.438-1.108.706-2.04.706-1.164 0-2.642-.426-4.459-1.424-2.347-1.29-5.088-3.445-8.25-6.616-3.735-3.742-6.16-6.986-7.313-9.616C.846 6.868.866 5.05 1.868 4.044L4.187 1.72a2.006 2.006 0 011.42-.587zm0 .797c-.324 0-.631.127-.857.353L2.433 4.606c-.724.727-.74 2.21.17 4.284 1.108 2.526 3.476 5.696 7.146 9.373 3.113 3.121 5.796 5.23 8.071 6.48 1.705.937 3.054 1.327 4.076 1.327.722 0 1.19-.188 1.475-.473l2.318-2.324.01-.009.01-.009a.654.654 0 00.078-.086v-.001c.414-.53.32-1.294-.209-1.708l-3.628-2.834a1.202 1.202 0 00-1.49.005l-.81.64a3.138 3.138 0 01-4.168-.246l-6.49-6.506a3.146 3.146 0 01-.245-4.174l.64-.803c.346-.442.349-1.061.004-1.504L6.56 2.397a1.202 1.202 0 00-.876-.463h-.02l-.021-.004h-.036zm20.808 21.728z"/></svg>